# MagicaVoxel @ Ephtracy

# group
o 

# material
mtllib military-ship-0.mtl
usemtl palette

# normals
vn -1 0 0
vn 1 0 0
vn 0 0 1
vn 0 0 -1
vn 0 -1 0
vn 0 1 0

# texcoords
vt 0.541016 0.5
vt 0.580078 0.5
vt 0.611328 0.5
vt 0.626953 0.5

# verts
v -7.9 20 0.1
v -7.9 20 -0.1
v -7.9 20.2 0.1
v -7.9 20.2 -0.1
v -6.6 18.9 0.3
v -6.6 18.9 -0.3
v -6.6 19.2 0.3
v -6.6 19.2 -0.3
v -6.6 19.5 0.3
v -6.6 19.5 -0.3
v -6.5 18.9 0.4
v -6.5 18.9 0.3
v -6.5 18.9 -0.3
v -6.5 18.9 -0.4
v -6.5 19.2 0.4
v -6.5 19.2 0.3
v -6.5 19.2 -0.3
v -6.5 19.2 -0.4
v -6.5 19.5 0.4
v -6.5 19.5 0.3
v -6.5 19.5 -0.3
v -6.5 19.5 -0.4
v -6.5 20 0.2
v -6.5 20 0.1
v -6.5 20 -0.1
v -6.5 20 -0.2
v -6.5 20.2 0.1
v -6.5 20.2 -0.1
v -6.5 20.4 0.2
v -6.5 20.4 -0.2
v -6.4 18.9 0.5
v -6.4 18.9 0.4
v -6.4 18.9 -0.4
v -6.4 18.9 -0.5
v -6.4 19.2 0.5
v -6.4 19.2 0.4
v -6.4 19.2 -0.4
v -6.4 19.2 -0.5
v -6.4 19.5 0.5
v -6.4 19.5 0.4
v -6.4 19.5 -0.4
v -6.4 19.5 -0.5
v -6.4 19.7 0.4
v -6.4 19.7 -0.4
v -6.4 20 0.2
v -6.4 20 -0.2
v -6.4 20.3 0.4
v -6.4 20.3 0.2
v -6.4 20.3 -0.2
v -6.4 20.3 -0.4
v -6.3 18.9 0.6
v -6.3 18.9 0.5
v -6.3 18.9 -0.5
v -6.3 18.9 -0.6
v -6.3 19.2 0.6
v -6.3 19.2 0.5
v -6.3 19.2 -0.5
v -6.3 19.2 -0.6
v -6.3 19.5 0.6
v -6.3 19.5 0.5
v -6.3 19.5 -0.5
v -6.3 19.5 -0.6
v -6.2 18.9 0.7
v -6.2 18.9 0.6
v -6.2 18.9 -0.6
v -6.2 18.9 -0.7
v -6.2 19.2 0.7
v -6.2 19.2 0.6
v -6.2 19.2 -0.6
v -6.2 19.2 -0.7
v -6.2 19.5 0.7
v -6.2 19.5 0.6
v -6.2 19.5 0.3
v -6.2 19.5 -0.3
v -6.2 19.5 -0.6
v -6.2 19.5 -0.7
v -6.2 19.7 0.3
v -6.2 19.7 -0.3
v -6.2 20.1 0.6
v -6.2 20.1 0.4
v -6.2 20.1 -0.4
v -6.2 20.1 -0.6
v -6.2 20.2 0.6
v -6.2 20.2 0.4
v -6.2 20.2 -0.4
v -6.2 20.2 -0.6
v -6.1 20.1 0.6
v -6.1 20.1 0.4
v -6.1 20.1 -0.4
v -6.1 20.1 -0.6
v -6.1 20.2 0.6
v -6.1 20.2 0.4
v -6.1 20.2 -0.4
v -6.1 20.2 -0.6
v -6.1 20.3 0.2
v -6.1 20.3 -0.2
v -6.1 20.4 0.2
v -6.1 20.4 -0.2
v -5.6 18.9 0.7
v -5.6 18.9 0.6
v -5.6 18.9 -0.6
v -5.6 18.9 -0.7
v -5.6 19.2 0.7
v -5.6 19.2 0.6
v -5.6 19.2 -0.6
v -5.6 19.2 -0.7
v -5.6 19.5 0.7
v -5.6 19.5 0.6
v -5.6 19.5 0.3
v -5.6 19.5 -0.3
v -5.6 19.5 -0.6
v -5.6 19.5 -0.7
v -5.6 19.7 0.3
v -5.6 19.7 -0.3
v -5.5 18.9 0.6
v -5.5 18.9 0.5
v -5.5 18.9 -0.5
v -5.5 18.9 -0.6
v -5.5 19.2 0.6
v -5.5 19.2 0.5
v -5.5 19.2 -0.5
v -5.5 19.2 -0.6
v -5.5 19.5 0.6
v -5.5 19.5 0.5
v -5.5 19.5 -0.5
v -5.5 19.5 -0.6
v -5.4 18.9 0.5
v -5.4 18.9 0.4
v -5.4 18.9 -0.4
v -5.4 18.9 -0.5
v -5.4 19.2 0.5
v -5.4 19.2 0.4
v -5.4 19.2 -0.4
v -5.4 19.2 -0.5
v -5.4 19.5 0.5
v -5.4 19.5 0.4
v -5.4 19.5 -0.4
v -5.4 19.5 -0.5
v -5.3 18.9 0.4
v -5.3 18.9 0.3
v -5.3 18.9 -0.3
v -5.3 18.9 -0.4
v -5.3 19.2 0.4
v -5.3 19.2 0.3
v -5.3 19.2 -0.3
v -5.3 19.2 -0.4
v -5.3 19.5 0.4
v -5.3 19.5 0.3
v -5.3 19.5 -0.3
v -5.3 19.5 -0.4
v -5.2 18.9 0.3
v -5.2 18.9 -0.3
v -5.2 19.2 0.3
v -5.2 19.2 -0.3
v -5.2 19.5 0.3
v -5.2 19.5 -0.3
v -5 19.7 0.4
v -5 19.7 -0.4
v -5 20.3 0.4
v -5 20.3 -0.4
v -6.2 18.9 0.7
v -6.2 19.2 0.7
v -6.2 19.5 0.7
v -5.6 18.9 0.7
v -5.6 19.2 0.7
v -5.6 19.5 0.7
v -6.3 18.9 0.6
v -6.3 19.2 0.6
v -6.3 19.5 0.6
v -6.2 18.9 0.6
v -6.2 19.2 0.6
v -6.2 19.5 0.6
v -6.2 20.1 0.6
v -6.2 20.2 0.6
v -6.1 20.1 0.6
v -6.1 20.2 0.6
v -5.6 18.9 0.6
v -5.6 19.2 0.6
v -5.6 19.5 0.6
v -5.5 18.9 0.6
v -5.5 19.2 0.6
v -5.5 19.5 0.6
v -6.4 18.9 0.5
v -6.4 19.2 0.5
v -6.4 19.5 0.5
v -6.3 18.9 0.5
v -6.3 19.2 0.5
v -6.3 19.5 0.5
v -5.5 18.9 0.5
v -5.5 19.2 0.5
v -5.5 19.5 0.5
v -5.4 18.9 0.5
v -5.4 19.2 0.5
v -5.4 19.5 0.5
v -6.5 18.9 0.4
v -6.5 19.2 0.4
v -6.5 19.5 0.4
v -6.4 18.9 0.4
v -6.4 19.2 0.4
v -6.4 19.5 0.4
v -6.4 19.7 0.4
v -6.4 20.3 0.4
v -6.2 20.1 0.4
v -6.2 20.2 0.4
v -6.1 20.1 0.4
v -6.1 20.2 0.4
v -5.4 18.9 0.4
v -5.4 19.2 0.4
v -5.4 19.5 0.4
v -5.3 18.9 0.4
v -5.3 19.2 0.4
v -5.3 19.5 0.4
v -5 19.7 0.4
v -5 20.3 0.4
v -6.6 18.9 0.3
v -6.6 19.2 0.3
v -6.6 19.5 0.3
v -6.5 18.9 0.3
v -6.5 19.2 0.3
v -6.5 19.5 0.3
v -6.2 19.5 0.3
v -6.2 19.7 0.3
v -5.6 19.5 0.3
v -5.6 19.7 0.3
v -5.3 18.9 0.3
v -5.3 19.2 0.3
v -5.3 19.5 0.3
v -5.2 18.9 0.3
v -5.2 19.2 0.3
v -5.2 19.5 0.3
v -6.5 20 0.2
v -6.5 20.4 0.2
v -6.4 20 0.2
v -6.4 20.3 0.2
v -6.1 20.3 0.2
v -6.1 20.4 0.2
v -7.9 20 0.1
v -7.9 20.2 0.1
v -7.8 20 0.1
v -7.8 20.2 0.1
v -7.7 20 0.1
v -7.7 20.2 0.1
v -6.5 20 0.1
v -6.5 20.2 0.1
v -7.9 20 -0.1
v -7.9 20.2 -0.1
v -7.8 20 -0.1
v -7.8 20.2 -0.1
v -7.7 20 -0.1
v -7.7 20.2 -0.1
v -6.5 20 -0.1
v -6.5 20.2 -0.1
v -6.5 20 -0.2
v -6.5 20.4 -0.2
v -6.4 20 -0.2
v -6.4 20.3 -0.2
v -6.1 20.3 -0.2
v -6.1 20.4 -0.2
v -6.6 18.9 -0.3
v -6.6 19.2 -0.3
v -6.6 19.5 -0.3
v -6.5 18.9 -0.3
v -6.5 19.2 -0.3
v -6.5 19.5 -0.3
v -6.2 19.5 -0.3
v -6.2 19.7 -0.3
v -5.6 19.5 -0.3
v -5.6 19.7 -0.3
v -5.3 18.9 -0.3
v -5.3 19.2 -0.3
v -5.3 19.5 -0.3
v -5.2 18.9 -0.3
v -5.2 19.2 -0.3
v -5.2 19.5 -0.3
v -6.5 18.9 -0.4
v -6.5 19.2 -0.4
v -6.5 19.5 -0.4
v -6.4 18.9 -0.4
v -6.4 19.2 -0.4
v -6.4 19.5 -0.4
v -6.4 19.7 -0.4
v -6.4 20.3 -0.4
v -6.2 20.1 -0.4
v -6.2 20.2 -0.4
v -6.1 20.1 -0.4
v -6.1 20.2 -0.4
v -5.4 18.9 -0.4
v -5.4 19.2 -0.4
v -5.4 19.5 -0.4
v -5.3 18.9 -0.4
v -5.3 19.2 -0.4
v -5.3 19.5 -0.4
v -5 19.7 -0.4
v -5 20.3 -0.4
v -6.4 18.9 -0.5
v -6.4 19.2 -0.5
v -6.4 19.5 -0.5
v -6.3 18.9 -0.5
v -6.3 19.2 -0.5
v -6.3 19.5 -0.5
v -5.5 18.9 -0.5
v -5.5 19.2 -0.5
v -5.5 19.5 -0.5
v -5.4 18.9 -0.5
v -5.4 19.2 -0.5
v -5.4 19.5 -0.5
v -6.3 18.9 -0.6
v -6.3 19.2 -0.6
v -6.3 19.5 -0.6
v -6.2 18.9 -0.6
v -6.2 19.2 -0.6
v -6.2 19.5 -0.6
v -6.2 20.1 -0.6
v -6.2 20.2 -0.6
v -6.1 20.1 -0.6
v -6.1 20.2 -0.6
v -5.6 18.9 -0.6
v -5.6 19.2 -0.6
v -5.6 19.5 -0.6
v -5.5 18.9 -0.6
v -5.5 19.2 -0.6
v -5.5 19.5 -0.6
v -6.2 18.9 -0.7
v -6.2 19.2 -0.7
v -6.2 19.5 -0.7
v -5.6 18.9 -0.7
v -5.6 19.2 -0.7
v -5.6 19.5 -0.7
v -6.2 18.9 0.7
v -5.6 18.9 0.7
v -6.3 18.9 0.6
v -6.2 18.9 0.6
v -5.6 18.9 0.6
v -5.5 18.9 0.6
v -6.4 18.9 0.5
v -6.3 18.9 0.5
v -5.5 18.9 0.5
v -5.4 18.9 0.5
v -6.5 18.9 0.4
v -6.4 18.9 0.4
v -5.4 18.9 0.4
v -5.3 18.9 0.4
v -6.6 18.9 0.3
v -6.5 18.9 0.3
v -5.3 18.9 0.3
v -5.2 18.9 0.3
v -6.6 18.9 -0.3
v -6.5 18.9 -0.3
v -5.3 18.9 -0.3
v -5.2 18.9 -0.3
v -6.5 18.9 -0.4
v -6.4 18.9 -0.4
v -5.4 18.9 -0.4
v -5.3 18.9 -0.4
v -6.4 18.9 -0.5
v -6.3 18.9 -0.5
v -5.5 18.9 -0.5
v -5.4 18.9 -0.5
v -6.3 18.9 -0.6
v -6.2 18.9 -0.6
v -5.6 18.9 -0.6
v -5.5 18.9 -0.6
v -6.2 18.9 -0.7
v -5.6 18.9 -0.7
v -6.4 19.7 0.4
v -5 19.7 0.4
v -6.2 19.7 0.3
v -5.6 19.7 0.3
v -6.2 19.7 -0.3
v -5.6 19.7 -0.3
v -6.4 19.7 -0.4
v -5 19.7 -0.4
v -6.5 20 0.2
v -6.4 20 0.2
v -7.9 20 0.1
v -7.8 20 0.1
v -7.7 20 0.1
v -6.5 20 0.1
v -7.9 20 -0.1
v -7.8 20 -0.1
v -7.7 20 -0.1
v -6.5 20 -0.1
v -6.5 20 -0.2
v -6.4 20 -0.2
v -6.2 20.1 0.6
v -6.1 20.1 0.6
v -6.2 20.1 0.4
v -6.1 20.1 0.4
v -6.2 20.1 -0.4
v -6.1 20.1 -0.4
v -6.2 20.1 -0.6
v -6.1 20.1 -0.6
v -6.2 19.5 0.7
v -5.6 19.5 0.7
v -6.3 19.5 0.6
v -6.2 19.5 0.6
v -5.6 19.5 0.6
v -5.5 19.5 0.6
v -6.4 19.5 0.5
v -6.3 19.5 0.5
v -5.5 19.5 0.5
v -5.4 19.5 0.5
v -6.5 19.5 0.4
v -6.4 19.5 0.4
v -5.4 19.5 0.4
v -5.3 19.5 0.4
v -6.6 19.5 0.3
v -6.5 19.5 0.3
v -6.2 19.5 0.3
v -5.6 19.5 0.3
v -5.3 19.5 0.3
v -5.2 19.5 0.3
v -6.6 19.5 -0.3
v -6.5 19.5 -0.3
v -6.2 19.5 -0.3
v -5.6 19.5 -0.3
v -5.3 19.5 -0.3
v -5.2 19.5 -0.3
v -6.5 19.5 -0.4
v -6.4 19.5 -0.4
v -5.4 19.5 -0.4
v -5.3 19.5 -0.4
v -6.4 19.5 -0.5
v -6.3 19.5 -0.5
v -5.5 19.5 -0.5
v -5.4 19.5 -0.5
v -6.3 19.5 -0.6
v -6.2 19.5 -0.6
v -5.6 19.5 -0.6
v -5.5 19.5 -0.6
v -6.2 19.5 -0.7
v -5.6 19.5 -0.7
v -6.2 20.2 0.6
v -6.1 20.2 0.6
v -6.2 20.2 0.4
v -6.1 20.2 0.4
v -7.9 20.2 0.1
v -7.8 20.2 0.1
v -7.7 20.2 0.1
v -6.5 20.2 0.1
v -7.9 20.2 -0.1
v -7.8 20.2 -0.1
v -7.7 20.2 -0.1
v -6.5 20.2 -0.1
v -6.2 20.2 -0.4
v -6.1 20.2 -0.4
v -6.2 20.2 -0.6
v -6.1 20.2 -0.6
v -6.4 20.3 0.4
v -5 20.3 0.4
v -6.4 20.3 0.2
v -6.1 20.3 0.2
v -6.4 20.3 -0.2
v -6.1 20.3 -0.2
v -6.4 20.3 -0.4
v -5 20.3 -0.4
v -6.5 20.4 0.2
v -6.1 20.4 0.2
v -6.5 20.4 -0.2
v -6.1 20.4 -0.2

# faces
f 3/4/1 2/4/1 1/4/1
f 4/4/1 2/4/1 3/4/1
f 7/2/1 6/2/1 5/2/1
f 8/2/1 6/2/1 7/2/1
f 9/1/1 8/1/1 7/1/1
f 10/1/1 8/1/1 9/1/1
f 15/2/1 12/2/1 11/2/1
f 16/2/1 12/2/1 15/2/1
f 17/2/1 14/2/1 13/2/1
f 18/2/1 14/2/1 17/2/1
f 19/1/1 16/1/1 15/1/1
f 20/1/1 16/1/1 19/1/1
f 21/1/1 18/1/1 17/1/1
f 22/1/1 18/1/1 21/1/1
f 27/1/1 24/1/1 23/1/1
f 28/1/1 26/1/1 25/1/1
f 29/1/1 27/1/1 23/1/1
f 29/1/1 28/1/1 27/1/1
f 30/1/1 26/1/1 28/1/1
f 30/1/1 28/1/1 29/1/1
f 35/2/1 32/2/1 31/2/1
f 36/2/1 32/2/1 35/2/1
f 37/2/1 34/2/1 33/2/1
f 38/2/1 34/2/1 37/2/1
f 39/1/1 36/1/1 35/1/1
f 40/1/1 36/1/1 39/1/1
f 41/1/1 38/1/1 37/1/1
f 42/1/1 38/1/1 41/1/1
f 45/1/1 44/1/1 43/1/1
f 46/1/1 44/1/1 45/1/1
f 47/1/1 45/1/1 43/1/1
f 48/1/1 45/1/1 47/1/1
f 49/1/1 44/1/1 46/1/1
f 50/1/1 44/1/1 49/1/1
f 55/2/1 52/2/1 51/2/1
f 56/2/1 52/2/1 55/2/1
f 57/2/1 54/2/1 53/2/1
f 58/2/1 54/2/1 57/2/1
f 59/1/1 56/1/1 55/1/1
f 60/1/1 56/1/1 59/1/1
f 61/1/1 58/1/1 57/1/1
f 62/1/1 58/1/1 61/1/1
f 67/2/1 64/2/1 63/2/1
f 68/2/1 64/2/1 67/2/1
f 69/2/1 66/2/1 65/2/1
f 70/2/1 66/2/1 69/2/1
f 71/1/1 68/1/1 67/1/1
f 72/1/1 68/1/1 71/1/1
f 75/1/1 70/1/1 69/1/1
f 76/1/1 70/1/1 75/1/1
f 77/1/1 74/1/1 73/1/1
f 78/1/1 74/1/1 77/1/1
f 83/1/1 80/1/1 79/1/1
f 84/1/1 80/1/1 83/1/1
f 85/1/1 82/1/1 81/1/1
f 86/1/1 82/1/1 85/1/1
f 87/1/2 88/1/2 91/1/2
f 91/1/2 88/1/2 92/1/2
f 89/1/2 90/1/2 93/1/2
f 93/1/2 90/1/2 94/1/2
f 95/1/2 96/1/2 97/1/2
f 97/1/2 96/1/2 98/1/2
f 99/2/2 100/2/2 103/2/2
f 103/2/2 100/2/2 104/2/2
f 101/2/2 102/2/2 105/2/2
f 105/2/2 102/2/2 106/2/2
f 103/1/2 104/1/2 107/1/2
f 107/1/2 104/1/2 108/1/2
f 105/1/2 106/1/2 111/1/2
f 111/1/2 106/1/2 112/1/2
f 109/1/2 110/1/2 113/1/2
f 113/1/2 110/1/2 114/1/2
f 115/2/2 116/2/2 119/2/2
f 119/2/2 116/2/2 120/2/2
f 117/2/2 118/2/2 121/2/2
f 121/2/2 118/2/2 122/2/2
f 119/1/2 120/1/2 123/1/2
f 123/1/2 120/1/2 124/1/2
f 121/1/2 122/1/2 125/1/2
f 125/1/2 122/1/2 126/1/2
f 127/2/2 128/2/2 131/2/2
f 131/2/2 128/2/2 132/2/2
f 129/2/2 130/2/2 133/2/2
f 133/2/2 130/2/2 134/2/2
f 131/1/2 132/1/2 135/1/2
f 135/1/2 132/1/2 136/1/2
f 133/1/2 134/1/2 137/1/2
f 137/1/2 134/1/2 138/1/2
f 139/2/2 140/2/2 143/2/2
f 143/2/2 140/2/2 144/2/2
f 141/2/2 142/2/2 145/2/2
f 145/2/2 142/2/2 146/2/2
f 143/1/2 144/1/2 147/1/2
f 147/1/2 144/1/2 148/1/2
f 145/1/2 146/1/2 149/1/2
f 149/1/2 146/1/2 150/1/2
f 151/2/2 152/2/2 153/2/2
f 153/2/2 152/2/2 154/2/2
f 153/1/2 154/1/2 155/1/2
f 155/1/2 154/1/2 156/1/2
f 157/1/2 158/1/2 159/1/2
f 159/1/2 158/1/2 160/1/2
f 164/2/3 162/2/3 161/2/3
f 165/1/3 163/1/3 162/1/3
f 165/2/3 162/2/3 164/2/3
f 166/1/3 163/1/3 165/1/3
f 170/2/3 168/2/3 167/2/3
f 171/1/3 169/1/3 168/1/3
f 171/2/3 168/2/3 170/2/3
f 172/1/3 169/1/3 171/1/3
f 175/1/3 174/1/3 173/1/3
f 176/1/3 174/1/3 175/1/3
f 180/2/3 178/2/3 177/2/3
f 181/1/3 179/1/3 178/1/3
f 181/2/3 178/2/3 180/2/3
f 182/1/3 179/1/3 181/1/3
f 186/2/3 184/2/3 183/2/3
f 187/1/3 185/1/3 184/1/3
f 187/2/3 184/2/3 186/2/3
f 188/1/3 185/1/3 187/1/3
f 192/2/3 190/2/3 189/2/3
f 193/1/3 191/1/3 190/1/3
f 193/2/3 190/2/3 192/2/3
f 194/1/3 191/1/3 193/1/3
f 198/2/3 196/2/3 195/2/3
f 199/1/3 197/1/3 196/1/3
f 199/2/3 196/2/3 198/2/3
f 200/1/3 197/1/3 199/1/3
f 203/1/3 202/1/3 201/1/3
f 204/1/3 202/1/3 203/1/3
f 205/1/3 203/1/3 201/1/3
f 206/1/3 202/1/3 204/1/3
f 210/2/3 208/2/3 207/2/3
f 211/1/3 209/1/3 208/1/3
f 211/2/3 208/2/3 210/2/3
f 212/1/3 209/1/3 211/1/3
f 213/1/3 205/1/3 201/1/3
f 213/1/3 206/1/3 205/1/3
f 214/1/3 202/1/3 206/1/3
f 214/1/3 206/1/3 213/1/3
f 218/2/3 216/2/3 215/2/3
f 219/1/3 217/1/3 216/1/3
f 219/2/3 216/2/3 218/2/3
f 220/1/3 217/1/3 219/1/3
f 223/1/3 222/1/3 221/1/3
f 224/1/3 222/1/3 223/1/3
f 228/2/3 226/2/3 225/2/3
f 229/1/3 227/1/3 226/1/3
f 229/2/3 226/2/3 228/2/3
f 230/1/3 227/1/3 229/1/3
f 233/1/3 232/1/3 231/1/3
f 234/1/3 232/1/3 233/1/3
f 235/1/3 232/1/3 234/1/3
f 236/1/3 232/1/3 235/1/3
f 239/4/3 238/4/3 237/4/3
f 240/4/3 238/4/3 239/4/3
f 241/3/3 240/3/3 239/3/3
f 242/3/3 240/3/3 241/3/3
f 243/1/3 242/1/3 241/1/3
f 244/1/3 242/1/3 243/1/3
f 245/4/4 246/4/4 247/4/4
f 247/4/4 246/4/4 248/4/4
f 247/3/4 248/3/4 249/3/4
f 249/3/4 248/3/4 250/3/4
f 249/1/4 250/1/4 251/1/4
f 251/1/4 250/1/4 252/1/4
f 253/1/4 254/1/4 255/1/4
f 255/1/4 254/1/4 256/1/4
f 256/1/4 254/1/4 257/1/4
f 257/1/4 254/1/4 258/1/4
f 259/2/4 260/2/4 262/2/4
f 260/1/4 261/1/4 263/1/4
f 262/2/4 260/2/4 263/2/4
f 263/1/4 261/1/4 264/1/4
f 265/1/4 266/1/4 267/1/4
f 267/1/4 266/1/4 268/1/4
f 269/2/4 270/2/4 272/2/4
f 270/1/4 271/1/4 273/1/4
f 272/2/4 270/2/4 273/2/4
f 273/1/4 271/1/4 274/1/4
f 275/2/4 276/2/4 278/2/4
f 276/1/4 277/1/4 279/1/4
f 278/2/4 276/2/4 279/2/4
f 279/1/4 277/1/4 280/1/4
f 281/1/4 282/1/4 283/1/4
f 283/1/4 282/1/4 284/1/4
f 281/1/4 283/1/4 285/1/4
f 284/1/4 282/1/4 286/1/4
f 287/2/4 288/2/4 290/2/4
f 288/1/4 289/1/4 291/1/4
f 290/2/4 288/2/4 291/2/4
f 291/1/4 289/1/4 292/1/4
f 281/1/4 285/1/4 293/1/4
f 285/1/4 286/1/4 293/1/4
f 286/1/4 282/1/4 294/1/4
f 293/1/4 286/1/4 294/1/4
f 295/2/4 296/2/4 298/2/4
f 296/1/4 297/1/4 299/1/4
f 298/2/4 296/2/4 299/2/4
f 299/1/4 297/1/4 300/1/4
f 301/2/4 302/2/4 304/2/4
f 302/1/4 303/1/4 305/1/4
f 304/2/4 302/2/4 305/2/4
f 305/1/4 303/1/4 306/1/4
f 307/2/4 308/2/4 310/2/4
f 308/1/4 309/1/4 311/1/4
f 310/2/4 308/2/4 311/2/4
f 311/1/4 309/1/4 312/1/4
f 313/1/4 314/1/4 315/1/4
f 315/1/4 314/1/4 316/1/4
f 317/2/4 318/2/4 320/2/4
f 318/1/4 319/1/4 321/1/4
f 320/2/4 318/2/4 321/2/4
f 321/1/4 319/1/4 322/1/4
f 323/2/4 324/2/4 326/2/4
f 324/1/4 325/1/4 327/1/4
f 326/2/4 324/2/4 327/2/4
f 327/1/4 325/1/4 328/1/4
f 332/2/5 330/2/5 329/2/5
f 333/2/5 330/2/5 332/2/5
f 336/2/5 332/2/5 331/2/5
f 336/2/5 334/2/5 333/2/5
f 336/2/5 333/2/5 332/2/5
f 337/2/5 334/2/5 336/2/5
f 340/2/5 336/2/5 335/2/5
f 340/2/5 338/2/5 337/2/5
f 340/2/5 337/2/5 336/2/5
f 341/2/5 338/2/5 340/2/5
f 344/2/5 340/2/5 339/2/5
f 344/2/5 342/2/5 341/2/5
f 344/2/5 341/2/5 340/2/5
f 345/2/5 342/2/5 344/2/5
f 347/2/5 344/2/5 343/2/5
f 347/2/5 346/2/5 345/2/5
f 347/2/5 345/2/5 344/2/5
f 348/2/5 346/2/5 347/2/5
f 349/2/5 346/2/5 348/2/5
f 350/2/5 346/2/5 349/2/5
f 351/2/5 349/2/5 348/2/5
f 352/2/5 349/2/5 351/2/5
f 353/2/5 349/2/5 352/2/5
f 354/2/5 349/2/5 353/2/5
f 355/2/5 353/2/5 352/2/5
f 356/2/5 353/2/5 355/2/5
f 357/2/5 353/2/5 356/2/5
f 358/2/5 353/2/5 357/2/5
f 359/2/5 357/2/5 356/2/5
f 360/2/5 357/2/5 359/2/5
f 361/2/5 357/2/5 360/2/5
f 362/2/5 357/2/5 361/2/5
f 363/2/5 361/2/5 360/2/5
f 364/2/5 361/2/5 363/2/5
f 367/1/5 366/1/5 365/1/5
f 368/1/5 366/1/5 367/1/5
f 369/1/5 367/1/5 365/1/5
f 370/1/5 366/1/5 368/1/5
f 371/1/5 369/1/5 365/1/5
f 371/1/5 370/1/5 369/1/5
f 372/1/5 366/1/5 370/1/5
f 372/1/5 370/1/5 371/1/5
f 378/1/5 374/1/5 373/1/5
f 379/4/5 376/4/5 375/4/5
f 380/3/5 377/3/5 376/3/5
f 380/4/5 376/4/5 379/4/5
f 381/1/5 378/1/5 377/1/5
f 381/3/5 377/3/5 380/3/5
f 382/1/5 374/1/5 378/1/5
f 382/1/5 378/1/5 381/1/5
f 383/1/5 374/1/5 382/1/5
f 384/1/5 374/1/5 383/1/5
f 387/1/5 386/1/5 385/1/5
f 388/1/5 386/1/5 387/1/5
f 391/1/5 390/1/5 389/1/5
f 392/1/5 390/1/5 391/1/5
f 393/1/6 394/1/6 396/1/6
f 396/1/6 394/1/6 397/1/6
f 395/1/6 396/1/6 400/1/6
f 397/1/6 398/1/6 400/1/6
f 396/1/6 397/1/6 400/1/6
f 400/1/6 398/1/6 401/1/6
f 399/1/6 400/1/6 404/1/6
f 401/1/6 402/1/6 404/1/6
f 400/1/6 401/1/6 404/1/6
f 404/1/6 402/1/6 405/1/6
f 403/1/6 404/1/6 408/1/6
f 405/1/6 406/1/6 408/1/6
f 404/1/6 405/1/6 408/1/6
f 408/1/6 406/1/6 409/1/6
f 409/1/6 406/1/6 410/1/6
f 410/1/6 406/1/6 411/1/6
f 407/1/6 408/1/6 413/1/6
f 408/1/6 409/1/6 413/1/6
f 413/1/6 409/1/6 414/1/6
f 414/1/6 409/1/6 415/1/6
f 411/1/6 412/1/6 416/1/6
f 410/1/6 411/1/6 416/1/6
f 416/1/6 412/1/6 417/1/6
f 417/1/6 412/1/6 418/1/6
f 414/1/6 415/1/6 419/1/6
f 416/1/6 417/1/6 419/1/6
f 415/1/6 416/1/6 419/1/6
f 419/1/6 417/1/6 420/1/6
f 420/1/6 417/1/6 421/1/6
f 421/1/6 417/1/6 422/1/6
f 420/1/6 421/1/6 423/1/6
f 423/1/6 421/1/6 424/1/6
f 424/1/6 421/1/6 425/1/6
f 425/1/6 421/1/6 426/1/6
f 424/1/6 425/1/6 427/1/6
f 427/1/6 425/1/6 428/1/6
f 428/1/6 425/1/6 429/1/6
f 429/1/6 425/1/6 430/1/6
f 428/1/6 429/1/6 431/1/6
f 431/1/6 429/1/6 432/1/6
f 433/1/6 434/1/6 435/1/6
f 435/1/6 434/1/6 436/1/6
f 437/4/6 438/4/6 441/4/6
f 438/3/6 439/3/6 442/3/6
f 441/4/6 438/4/6 442/4/6
f 439/1/6 440/1/6 443/1/6
f 442/3/6 439/3/6 443/3/6
f 443/1/6 440/1/6 444/1/6
f 445/1/6 446/1/6 447/1/6
f 447/1/6 446/1/6 448/1/6
f 449/1/6 450/1/6 451/1/6
f 451/1/6 450/1/6 452/1/6
f 452/1/6 450/1/6 454/1/6
f 453/1/6 454/1/6 455/1/6
f 454/1/6 450/1/6 456/1/6
f 455/1/6 454/1/6 456/1/6
f 457/1/6 458/1/6 459/1/6
f 459/1/6 458/1/6 460/1/6
